<svg width="164" height="144" viewBox="0 0 164 144" fill="none" xmlns="http://www.w3.org/2000/svg">
<path d="M156.295 143.338H7.00914C1.63915 143.338 -1.74394 137.485 0.941056 132.813L75.5838 3.50391C78.2688 -1.16797 85.035 -1.16797 87.72 3.50391L162.363 132.813C165.048 137.485 161.718 143.338 156.295 143.338Z" fill="#E84949"/>
<path d="M92.065 57.2032L90.5614 88.2954C90.3466 92.2691 87.071 95.3837 83.1509 95.3837H80.2511C76.2773 95.3837 73.0016 92.2691 72.8405 88.2954L71.3369 57.2032C71.0684 52.1554 75.0959 47.9668 80.1437 47.9668H83.3657C88.306 47.9668 92.2798 52.2091 92.065 57.2032Z" fill="white"/>
<path d="M90.1859 117.883C90.1859 122.609 86.3732 126.421 81.6476 126.421C76.9221 126.421 73.1094 122.609 73.1094 117.883C73.1094 113.157 76.9221 109.345 81.6476 109.345C86.3732 109.345 90.1859 113.157 90.1859 117.883Z" fill="white"/>
</svg>
