<svg width="186" height="183" viewBox="0 0 186 183" fill="none" xmlns="http://www.w3.org/2000/svg">
<path d="M128.637 113.289H83.1423C82.7436 113.289 82.3449 113.217 81.9739 113.078L60.572 105.038C59.2763 104.551 58.418 103.31 58.418 101.926V51.514C58.418 49.6812 59.9075 48.1916 61.7404 48.1916H72.9701C82.6882 43.5347 88.0262 35.6717 88.0262 25.9757V3.32241C88.0262 1.48955 89.5158 0 91.3486 0C103.259 0 112.95 9.68484 112.95 21.5902V42.0341H133.272C142.912 42.0341 150.853 49.5649 151.351 59.1777C151.363 59.4103 151.351 59.6484 151.313 59.8754L144.64 101.461C144.607 101.655 144.563 101.843 144.496 102.031C142.143 108.765 135.769 113.289 128.637 113.289ZM83.7403 106.644H128.632C132.857 106.644 136.633 104.025 138.128 100.104L144.69 59.1999C144.214 53.2749 139.258 48.6844 133.266 48.6844H109.622C107.789 48.6844 106.299 47.1949 106.299 45.362V21.5957C106.299 14.4968 101.321 8.53307 94.6655 7.02137V25.9757C94.6655 38.4569 87.5279 48.8672 75.0799 54.5374C74.648 54.7368 74.1773 54.8364 73.7011 54.8364H65.0573V99.6226L83.7403 106.644Z" fill="white"/>
<path d="M61.7415 105.247H39.8966C38.0638 105.247 36.5742 103.758 36.5742 101.925V51.5128C36.5742 49.68 38.0638 48.1904 39.8966 48.1904H61.7415C63.5744 48.1904 65.0639 49.68 65.0639 51.5128V101.925C65.0639 103.763 63.5744 105.247 61.7415 105.247ZM43.2135 98.6025H58.4136V54.8353H43.2135V98.6025Z" fill="white"/>
<path d="M42.5057 182.865C41.9962 182.865 41.4813 182.748 41.005 182.505L27.5382 175.694L14.0713 182.505C12.9473 183.075 11.6017 182.959 10.5883 182.206C9.58054 181.453 9.07664 180.196 9.29813 178.955L11.8398 164.691L1.04747 154.563C0.117195 153.688 -0.231659 152.354 0.155956 151.136C0.543571 149.917 1.59567 149.026 2.86372 148.849L17.8866 146.75L24.5812 133.693C25.1516 132.585 26.2923 131.888 27.5382 131.888C28.7841 131.888 29.9248 132.585 30.4951 133.693L37.1898 146.75L52.2126 148.849C53.4807 149.026 54.5328 149.917 54.9204 151.136C55.308 152.354 54.9592 153.688 54.0289 154.563L43.2366 164.691L45.7782 178.955C45.9997 180.196 45.5014 181.453 44.488 182.206C43.9011 182.643 43.2034 182.865 42.5057 182.865ZM27.5382 168.645C28.0532 168.645 28.5681 168.766 29.0388 169.005L38.0647 173.573L36.3758 164.087C36.1765 162.98 36.553 161.85 37.3725 161.081L44.416 154.475L34.5596 153.096C33.4908 152.946 32.555 152.282 32.0622 151.318L27.5382 142.492L23.0142 151.318C22.5213 152.282 21.5911 152.941 20.5168 153.096L10.6603 154.475L17.7038 161.081C18.5234 161.85 18.8999 162.98 18.7006 164.087L17.0117 173.573L26.0376 169.005C26.5082 168.766 27.0232 168.645 27.5382 168.645Z" fill="#05C7F2"/>
<path d="M107.67 182.865C107.138 182.865 106.612 182.737 106.125 182.483L93.2669 175.721L80.4091 182.483C79.2906 183.069 77.9339 182.975 76.9095 182.228C75.8851 181.486 75.3756 180.223 75.5861 178.977L78.0447 164.658L67.64 154.519C66.7318 153.638 66.4107 152.315 66.7983 151.113C67.1914 149.912 68.2269 149.031 69.4784 148.854L83.8533 146.767L90.2822 133.737C90.8415 132.602 91.9988 131.888 93.2613 131.888C94.5238 131.888 95.6811 132.608 96.2404 133.737L102.669 146.767L117.044 148.854C118.296 149.037 119.337 149.912 119.724 151.113C120.117 152.315 119.791 153.638 118.883 154.519L108.478 164.658L110.931 178.977C111.147 180.223 110.632 181.486 109.608 182.228C109.043 182.649 108.362 182.865 107.67 182.865ZM93.2669 168.645C93.7984 168.645 94.33 168.772 94.8118 169.027L103.256 173.468L101.645 164.065C101.462 162.986 101.817 161.889 102.603 161.125L109.436 154.463L99.9947 153.09C98.915 152.935 97.9791 152.254 97.4918 151.274L93.2669 142.719L89.0418 151.274C88.5601 152.254 87.6243 152.935 86.539 153.09L77.0978 154.463L83.9309 161.125C84.7116 161.889 85.0716 162.986 84.8888 164.065L83.2775 173.468L91.7219 169.027C92.2037 168.772 92.7353 168.645 93.2669 168.645Z" fill="#05C7F2"/>
<path d="M144.585 182.865C143.898 182.865 143.211 182.649 142.63 182.228C141.605 181.486 141.096 180.223 141.306 178.977L143.759 164.658L133.355 154.519C132.447 153.638 132.126 152.315 132.513 151.113C132.906 149.912 133.942 149.031 135.193 148.854L149.568 146.767L155.997 133.737C156.556 132.602 157.714 131.888 158.976 131.888C160.239 131.888 161.396 132.608 161.955 133.737L168.384 146.767L182.759 148.854C184.011 149.037 185.052 149.912 185.439 151.113C185.832 152.315 185.506 153.638 184.598 154.519L174.193 164.658L176.651 178.977C176.867 180.223 176.352 181.486 175.328 182.228C174.304 182.97 172.947 183.069 171.828 182.483L158.971 175.721L146.113 182.483C145.648 182.737 145.116 182.865 144.585 182.865ZM142.824 154.463L149.657 161.125C150.438 161.889 150.797 162.986 150.615 164.065L149.003 173.468L157.448 169.027C158.417 168.517 159.574 168.517 160.538 169.027L168.982 173.468L167.371 164.065C167.188 162.986 167.542 161.889 168.329 161.125L175.162 154.463L165.721 153.09C164.641 152.935 163.705 152.254 163.218 151.274L158.993 142.719L154.768 151.274C154.286 152.254 153.35 152.935 152.265 153.09L142.824 154.463Z" fill="#05C7F2"/>
</svg>
