<svg width="92" height="73" viewBox="0 0 92 73" fill="none" xmlns="http://www.w3.org/2000/svg">
<path d="M85.9475 72.3304C85.5313 72.4153 85.1037 72.4573 84.6668 72.4534L17.2558 71.9039C16.4432 71.8968 15.6515 71.7312 14.897 71.4091C14.4164 71.204 14.0442 70.7746 13.9322 70.2257C13.751 69.3372 14.3241 68.4703 15.2126 68.289C15.5675 68.2166 15.9202 68.2643 16.2259 68.4068C16.5657 68.5475 16.9207 68.6187 17.283 68.6219L84.6971 69.1735C85.4457 69.1803 86.1529 68.8924 86.687 68.3686C87.221 67.8448 87.5168 67.1435 87.5215 66.3979L87.798 32.6096L81.807 32.5607C80.9015 32.5539 80.1704 31.8122 80.1797 30.9061C80.1864 30.0005 80.9281 29.2694 81.8342 29.2787L87.8252 29.3277L87.8666 24.277L80.1043 24.2145C79.1987 24.2077 78.4677 23.466 78.4769 22.5599C78.4837 21.6543 79.2229 20.9238 80.1315 20.9325L87.8938 20.9951L87.9064 19.6362C87.9189 18.0939 86.6712 16.8272 85.1257 16.8128L78.5833 16.7593C77.6778 16.7526 76.9467 16.0108 76.956 15.1047C76.9627 14.1991 77.7045 13.4681 78.6105 13.4774L85.1529 13.5308C88.5069 13.5593 91.2142 16.3099 91.1883 19.6634L91.1616 22.6607L91.1621 22.6633C91.1626 22.6658 91.1626 22.6658 91.1631 22.6684L91.0956 30.9928L91.0961 30.9953L91.0966 30.9979L90.806 66.4246C90.7939 68.0466 90.1497 69.5689 88.9915 70.7094C88.1378 71.5431 87.0887 72.0975 85.9475 72.3304ZM80.9304 63.1205C80.8181 63.1435 80.7031 63.1536 80.5887 63.153L69.5603 63.0627C68.6573 63.0554 67.9273 62.3188 67.9314 61.4137L67.9424 58.9516C67.946 58.044 68.6852 57.3134 69.5903 57.3176C70.4979 57.3212 71.2284 58.0604 71.2243 58.9655L71.2203 59.7934L78.9693 59.856L78.9893 56.6952C78.996 55.7896 79.7327 55.0596 80.6403 55.0632C81.5458 55.07 82.2764 55.8092 82.2722 56.7142L82.2422 61.5206C82.2408 61.957 82.0625 62.3736 81.7525 62.6789C81.5249 62.9062 81.2393 63.0575 80.9304 63.1205ZM46.8707 55.3999L46.8656 55.401C45.9771 55.5822 45.1102 55.0091 44.929 54.1206C44.7477 53.2321 45.3208 52.3653 46.2093 52.184C47.0978 52.0027 47.9672 52.5753 48.1485 53.4638C48.3297 54.3523 47.7592 55.2187 46.8707 55.3999Z" fill="white"/>
<path d="M82.799 57.9415L16.7417 71.4181C13.4532 72.089 10.2348 69.9612 9.56386 66.6728L0.216243 20.8542C-0.454644 17.5657 1.67313 14.3472 4.96158 13.6763L71.0189 0.199739C74.3073 -0.471147 77.5258 1.65663 78.1967 4.94507L87.5443 50.7637C88.2147 54.0496 86.0849 57.2711 82.799 57.9415ZM5.61788 16.8933C4.10387 17.2022 3.12432 18.6838 3.4332 20.1979L12.7808 66.0165C13.0897 67.5305 14.5714 68.51 16.0854 68.2011L82.1427 54.7246C83.6567 54.4157 84.6363 52.934 84.3274 51.42L74.9798 5.60138C74.6709 4.08737 73.1892 3.10781 71.6752 3.41669L5.61788 16.8933ZM18.1201 61.2678C17.2342 61.4486 16.3709 60.8801 16.1851 59.9952C16.0013 59.1072 16.5687 58.2388 17.4562 58.0524L24.4736 56.5889C24.4762 56.5884 24.4787 56.5878 24.4813 56.5873C25.3672 56.4066 26.2305 56.9751 26.4163 57.86C26.6001 58.748 26.0327 59.6163 25.1452 59.8027L18.1278 61.2663C18.1252 61.2668 18.1227 61.2673 18.1201 61.2678ZM37.8829 57.2174L31.1073 58.589C30.2188 58.7703 29.354 58.1941 29.1727 57.3056C28.9915 56.4171 29.5651 55.5528 30.4536 55.3715L30.4561 55.371L37.2291 53.9999C38.1176 53.8186 38.985 54.3943 39.1637 55.2833C39.3445 56.1692 38.7714 57.0361 37.8829 57.2174ZM45.8139 55.578C44.9279 55.7588 44.0647 55.1903 43.8788 54.3054C43.695 53.4174 44.2625 52.549 45.1499 52.3627L52.1673 50.8991C52.1699 50.8986 52.1724 50.898 52.175 50.8975C53.0609 50.7168 53.9242 51.2853 54.1101 52.1702C54.2939 53.0582 53.7264 53.9265 52.839 54.1129L45.8215 55.5765C45.819 55.577 45.8164 55.5775 45.8139 55.578ZM65.5761 51.525L58.8005 52.8967C57.912 53.0779 57.0472 52.5018 56.8659 51.6133C56.6847 50.7248 57.2583 49.8605 58.1468 49.6792L58.1493 49.6787L64.9223 48.3075C65.8108 48.1263 66.6782 48.7019 66.8569 49.5909C67.0382 50.4794 66.4646 51.3437 65.5761 51.525ZM51.0024 46.5706L44.2268 47.9422C43.3383 48.1235 42.4735 47.5473 42.2922 46.6588C42.1109 45.7703 42.6846 44.906 43.5731 44.7248L43.5756 44.7242L50.3486 43.3531C51.2371 43.1718 52.1045 43.7475 52.2832 44.6365C52.4645 45.525 51.8909 46.3893 51.0024 46.5706ZM16.5497 53.5701C15.6638 53.7509 14.8005 53.1824 14.6146 52.2975C14.4308 51.4095 14.9983 50.5411 15.8857 50.3547L22.9032 48.8912C22.9057 48.8906 22.9083 48.8901 22.9108 48.8896C23.7968 48.7089 24.66 49.2774 24.8459 50.1623C25.0297 51.0502 24.4622 51.9186 23.5748 52.105L16.5574 53.5686C16.5548 53.5691 16.5523 53.5696 16.5497 53.5701ZM62.245 12.5157C62.1148 12.5422 61.9764 12.5545 61.8363 12.5458C60.9311 12.5018 60.2326 11.7374 60.2767 10.8322L60.2772 10.8215C60.3212 9.91631 61.0937 9.21884 61.9989 9.26288C62.9041 9.30691 63.6011 10.0769 63.5576 10.9847C63.5217 11.7472 62.965 12.3688 62.245 12.5157ZM68.2381 11.2584C68.1079 11.285 67.9695 11.2973 67.8294 11.2886C66.9242 11.2446 66.2257 10.4802 66.2698 9.575L66.2703 9.56427C66.3143 8.65906 67.0843 7.96212 67.992 8.00563C68.8972 8.04967 69.5942 8.81965 69.5507 9.72741C69.5148 10.49 68.9581 11.1115 68.2381 11.2584ZM56.3634 13.6677C56.2332 13.6943 56.0948 13.7066 55.9547 13.6979C55.0495 13.6539 54.3511 12.8895 54.3951 11.9843L54.3956 11.9736C54.4396 11.0684 55.2096 10.3714 56.1173 10.4149C57.0225 10.459 57.7195 11.229 57.676 12.1367C57.6401 12.8993 57.0834 13.5208 56.3634 13.6677ZM50.6152 14.8218C50.485 14.8484 50.3466 14.8607 50.2065 14.852C49.3013 14.808 48.6028 14.0436 48.6469 13.1384L48.6474 13.1277C48.6914 12.2225 49.4639 11.525 50.3691 11.569C51.2743 11.6131 51.9713 12.3831 51.9278 13.2908C51.8919 14.0534 51.3352 14.6749 50.6152 14.8218Z" fill="#05C7F2"/>
<path d="M24.5525 31.7764L13.7425 33.9818C12.8566 34.1626 11.9902 33.592 11.8069 32.7066L9.5024 21.6323C9.41286 21.2064 9.49751 20.761 9.73679 20.3957C9.97608 20.0304 10.3497 19.776 10.7786 19.6885L21.6043 17.456L21.6069 17.4555C22.0333 17.3685 22.4736 17.4542 22.8389 17.6934C23.2016 17.9333 23.456 18.3069 23.543 18.7332L25.8292 29.8352C25.9162 30.2616 25.8316 30.707 25.5918 31.0698C25.353 31.4376 24.9789 31.6894 24.5525 31.7764ZM14.6896 30.4377L22.2826 28.8887L20.6588 21.0077L13.0541 22.5778L14.6896 30.4377Z" fill="white"/>
</svg>
